<svg width="291" height="66" viewBox="0 0 291 66" fill="none" xmlns="http://www.w3.org/2000/svg">
<path d="M27.8962 41.2039V49.7765C27.8962 55 26.7055 59.0251 24.3241 61.852C21.9995 64.6173 18.5408 66 13.9481 66C9.35544 66 5.86841 64.6173 3.48703 61.852C1.16234 59.0251 0 55 0 49.7765V16.2235C0 11 1.16234 7.00558 3.48703 4.24022C5.86841 1.41341 9.35544 0 13.9481 0C18.5408 0 21.9995 1.41341 24.3241 4.24022C26.7055 7.00558 27.8962 11 27.8962 16.2235V22.4916H19.0511V15.5782C19.0511 13.243 18.5975 11.6145 17.6903 10.6927C16.8398 9.7095 15.6774 9.21787 14.2033 9.21787C12.7291 9.21787 11.5384 9.7095 10.6312 10.6927C9.78069 11.6145 9.35544 13.243 9.35544 15.5782V50.4218C9.35544 52.757 9.78069 54.3855 10.6312 55.3073C11.5384 56.229 12.7291 56.6899 14.2033 56.6899C15.6774 56.6899 16.8398 56.229 17.6903 55.3073C18.5975 54.3855 19.0511 52.757 19.0511 50.4218V41.2039H27.8962Z" fill="url(#paint0_linear_672_917)"/>
<path d="M53.134 65.2626C53.0206 64.8324 52.9072 64.433 52.7938 64.0642C52.6804 63.6955 52.567 63.2346 52.4536 62.6816C52.3969 62.1285 52.3402 61.4218 52.2835 60.5615C52.2835 59.7011 52.2835 58.6257 52.2835 57.3352V47.1955C52.2835 44.1844 51.8015 42.0642 50.8376 40.8352C49.8737 39.6061 48.3145 38.9916 46.1599 38.9916H42.928V65.2626H33.5726V0.737426H47.6908C52.567 0.737426 56.0824 1.96648 58.2369 4.42458C60.4482 6.88268 61.5539 10.6006 61.5539 15.5782V20.648C61.5539 27.2849 59.5127 31.648 55.4303 33.7374C57.8117 34.7821 59.4276 36.5028 60.2781 38.8994C61.1853 41.2346 61.6389 44.0922 61.6389 47.4721V57.4274C61.6389 59.0251 61.6956 60.4385 61.809 61.6676C61.9224 62.8352 62.2059 64.0335 62.6595 65.2626H53.134ZM42.928 9.95531V29.7737H46.5852C48.3429 29.7737 49.7037 29.2821 50.6675 28.2989C51.6881 27.3156 52.1984 25.5335 52.1984 22.9525V16.5922C52.1984 14.257 51.8015 12.567 51.0077 11.5223C50.2706 10.4777 49.08 9.95531 47.4357 9.95531H42.928Z" fill="url(#paint1_linear_672_917)"/>
<path d="M77.1472 27.9302H89.9896V37.148H77.1472V56.0447H93.3065V65.2626H67.7917V0.737426H93.3065V9.95531H77.1472V27.9302Z" fill="url(#paint2_linear_672_917)"/>
<path d="M129.381 65.2626H119.941L118.325 53.5559H106.843L105.227 65.2626H96.6374L106.163 0.737426H119.856L129.381 65.2626ZM108.034 44.7989H117.049L112.542 12.1676L108.034 44.7989Z" fill="url(#paint3_linear_672_917)"/>
<path d="M160.869 41.2039V49.7765C160.869 55 159.678 59.0251 157.297 61.852C154.972 64.6173 151.514 66 146.921 66C142.328 66 138.841 64.6173 136.46 61.852C134.135 59.0251 132.973 55 132.973 49.7765V16.2235C132.973 11 134.135 7.00558 136.46 4.24022C138.841 1.41341 142.328 0 146.921 0C151.514 0 154.972 1.41341 157.297 4.24022C159.678 7.00558 160.869 11 160.869 16.2235V22.4916H152.024V15.5782C152.024 13.243 151.57 11.6145 150.663 10.6927C149.813 9.7095 148.65 9.21787 147.176 9.21787C145.702 9.21787 144.511 9.7095 143.604 10.6927C142.754 11.6145 142.328 13.243 142.328 15.5782V50.4218C142.328 52.757 142.754 54.3855 143.604 55.3073C144.511 56.229 145.702 56.6899 147.176 56.6899C148.65 56.6899 149.813 56.229 150.663 55.3073C151.57 54.3855 152.024 52.757 152.024 50.4218V41.2039H160.869Z" fill="url(#paint4_linear_672_917)"/>
<path d="M186.107 65.2626C185.993 64.8324 185.88 64.433 185.767 64.0642C185.653 63.6955 185.54 63.2346 185.426 62.6816C185.37 62.1285 185.313 61.4218 185.256 60.5615C185.256 59.7011 185.256 58.6257 185.256 57.3352V47.1955C185.256 44.1844 184.774 42.0642 183.81 40.8352C182.847 39.6061 181.287 38.9916 179.133 38.9916H175.901V65.2626H166.545V0.737426H180.664C185.54 0.737426 189.055 1.96648 191.21 4.42458C193.421 6.88268 194.527 10.6006 194.527 15.5782V20.648C194.527 27.2849 192.485 31.648 188.403 33.7374C190.785 34.7821 192.4 36.5028 193.251 38.8994C194.158 41.2346 194.612 44.0922 194.612 47.4721V57.4274C194.612 59.0251 194.668 60.4385 194.782 61.6676C194.895 62.8352 195.179 64.0335 195.632 65.2626H186.107ZM175.901 9.95531V29.7737H179.558C181.316 29.7737 182.676 29.2821 183.64 28.2989C184.661 27.3156 185.171 25.5335 185.171 22.9525V16.5922C185.171 14.257 184.774 12.567 183.981 11.5223C183.243 10.4777 182.053 9.95531 180.408 9.95531H175.901Z" fill="url(#paint5_linear_672_917)"/>
<path d="M231.042 65.2626H221.602L219.986 53.5559H208.504L206.888 65.2626H198.298L207.824 0.737426H221.517L231.042 65.2626ZM209.695 44.7989H218.71L214.202 12.1676L209.695 44.7989Z" fill="url(#paint6_linear_672_917)"/>
<path d="M244.754 29.405H256.831V38.6229H244.754V65.2626H235.399V0.737426H260.148V9.95531H244.754V29.405Z" fill="url(#paint7_linear_672_917)"/>
<path d="M262.083 0.737426H291V9.95531H281.219V65.2626H271.864V9.95531H262.083V0.737426Z" fill="url(#paint8_linear_672_917)"/>
<defs>
<linearGradient id="paint0_linear_672_917" x1="291.492" y1="66" x2="-0.865159" y2="66" gradientUnits="userSpaceOnUse">
<stop offset="0.541467" stop-color="white"/>
<stop offset="0.541567" stop-color="white"/>
<stop offset="0.541667" stop-color="#EE881F"/>
<stop offset="1" stop-color="#EE881F"/>
</linearGradient>
<linearGradient id="paint1_linear_672_917" x1="291.492" y1="66" x2="-0.865159" y2="66" gradientUnits="userSpaceOnUse">
<stop offset="0.541467" stop-color="white"/>
<stop offset="0.541567" stop-color="white"/>
<stop offset="0.541667" stop-color="#EE881F"/>
<stop offset="1" stop-color="#EE881F"/>
</linearGradient>
<linearGradient id="paint2_linear_672_917" x1="291.492" y1="66" x2="-0.865159" y2="66" gradientUnits="userSpaceOnUse">
<stop offset="0.541467" stop-color="white"/>
<stop offset="0.541567" stop-color="white"/>
<stop offset="0.541667" stop-color="#EE881F"/>
<stop offset="1" stop-color="#EE881F"/>
</linearGradient>
<linearGradient id="paint3_linear_672_917" x1="291.492" y1="66" x2="-0.865159" y2="66" gradientUnits="userSpaceOnUse">
<stop offset="0.541467" stop-color="white"/>
<stop offset="0.541567" stop-color="white"/>
<stop offset="0.541667" stop-color="#EE881F"/>
<stop offset="1" stop-color="#EE881F"/>
</linearGradient>
<linearGradient id="paint4_linear_672_917" x1="291.492" y1="66" x2="-0.865159" y2="66" gradientUnits="userSpaceOnUse">
<stop offset="0.541467" stop-color="white"/>
<stop offset="0.541567" stop-color="white"/>
<stop offset="0.541667" stop-color="#EE881F"/>
<stop offset="1" stop-color="#EE881F"/>
</linearGradient>
<linearGradient id="paint5_linear_672_917" x1="291.492" y1="66" x2="-0.865159" y2="66" gradientUnits="userSpaceOnUse">
<stop offset="0.541467" stop-color="white"/>
<stop offset="0.541567" stop-color="white"/>
<stop offset="0.541667" stop-color="#EE881F"/>
<stop offset="1" stop-color="#EE881F"/>
</linearGradient>
<linearGradient id="paint6_linear_672_917" x1="291.492" y1="66" x2="-0.865159" y2="66" gradientUnits="userSpaceOnUse">
<stop offset="0.541467" stop-color="white"/>
<stop offset="0.541567" stop-color="white"/>
<stop offset="0.541667" stop-color="#EE881F"/>
<stop offset="1" stop-color="#EE881F"/>
</linearGradient>
<linearGradient id="paint7_linear_672_917" x1="291.492" y1="66" x2="-0.865159" y2="66" gradientUnits="userSpaceOnUse">
<stop offset="0.541467" stop-color="white"/>
<stop offset="0.541567" stop-color="white"/>
<stop offset="0.541667" stop-color="#EE881F"/>
<stop offset="1" stop-color="#EE881F"/>
</linearGradient>
<linearGradient id="paint8_linear_672_917" x1="291.492" y1="66" x2="-0.865159" y2="66" gradientUnits="userSpaceOnUse">
<stop offset="0.541467" stop-color="white"/>
<stop offset="0.541567" stop-color="white"/>
<stop offset="0.541667" stop-color="#EE881F"/>
<stop offset="1" stop-color="#EE881F"/>
</linearGradient>
</defs>
</svg>
