<svg width="24" height="20" viewBox="0 0 24 20" fill="none" xmlns="http://www.w3.org/2000/svg">
<g clip-path="url(#clip0_218_1681)">
<path fill-rule="evenodd" clip-rule="evenodd" d="M4.54983 0.244078C4.20911 -0.0813592 3.65668 -0.0813592 3.31595 0.244078C2.97523 0.569515 2.97523 1.09715 3.31595 1.42259L7.04634 4.98559C5.4682 6.28307 4.15133 7.84877 3.1641 9.606C3.03006 9.84459 3.15252 10.3727 3.15252 10.3727L3.15322 10.374L3.15424 10.376L3.15725 10.3817L3.16715 10.4002C3.17547 10.4156 3.18723 10.4373 3.20241 10.4647C3.23276 10.5194 3.27681 10.5973 3.33434 10.695C3.44936 10.8903 3.61867 11.1654 3.8407 11.4938C4.28369 12.1489 4.94221 13.0245 5.80477 13.9033C7.51398 15.6447 10.128 17.5 13.5302 17.5L13.5445 17.4999C15.3491 17.4717 17.1041 16.9613 18.6134 16.0336L22.5106 19.7559C22.8513 20.0814 23.4037 20.0814 23.7445 19.7559C24.0852 19.4305 24.0852 18.9028 23.7445 18.5774L19.3376 14.3683C19.3319 14.3627 19.3261 14.3572 19.3203 14.3517L8.97249 4.46828C8.96678 4.46268 8.96101 4.45717 8.95518 4.45175L4.54983 0.244078ZM8.28406 6.16777C6.94324 7.25116 5.80816 8.54848 4.92977 10.0027C5.02494 10.1596 5.15081 10.3593 5.30654 10.5896C5.70878 11.1844 6.30445 11.9755 7.07779 12.7634C8.63902 14.354 10.8212 15.8308 13.5231 15.8334C14.8715 15.8111 16.1858 15.4604 17.3442 14.8214L15.3186 12.8866C15.1801 12.9696 15.0353 13.0433 14.8853 13.1071C14.4572 13.2893 13.9951 13.3873 13.5265 13.3952C13.0579 13.4031 12.5924 13.3208 12.1579 13.1531C11.7233 12.9855 11.3286 12.7359 10.9972 12.4194C10.6658 12.1029 10.4045 11.7258 10.229 11.3108C10.0535 10.8957 9.96726 10.4511 9.97553 10.0036C9.9838 9.55601 10.0864 9.11462 10.2771 8.70573C10.344 8.56245 10.4211 8.42419 10.508 8.29189L8.28406 6.16777ZM11.8096 9.53509C11.7536 9.69546 11.7234 9.86333 11.7202 10.033C11.7161 10.2568 11.7592 10.4791 11.847 10.6866C11.9347 10.8941 12.0653 11.0826 12.231 11.2409C12.3967 11.3992 12.5941 11.5239 12.8114 11.6077C13.0287 11.6916 13.2614 11.7327 13.4957 11.7288C13.6733 11.7258 13.8491 11.6969 14.017 11.6434L11.8096 9.53509Z" fill="#F6F6F6" fill-opacity="0.4"/>
<path fill-rule="evenodd" clip-rule="evenodd" d="M11.8968 4.34476C12.4316 4.22521 12.979 4.16545 13.5282 4.16669L13.5302 4.16669C16.2353 4.16669 18.42 5.64465 19.9826 7.23664C20.756 8.02452 21.3516 8.81559 21.7539 9.41046C21.9099 9.64115 22.0359 9.84106 22.1311 9.99816C21.6797 10.7485 21.1591 11.4592 20.5754 12.1218C20.2651 12.474 20.3125 12.9997 20.6812 13.296C21.0499 13.5923 21.6003 13.547 21.9105 13.1949C22.673 12.3295 23.3387 11.3904 23.897 10.3929C24.0304 10.1545 24.0327 9.86584 23.9062 9.62408L23.9032 9.61839L23.8933 9.59988C23.8849 9.58442 23.8732 9.56278 23.858 9.53539C23.8277 9.4806 23.7836 9.40271 23.7261 9.30501C23.6111 9.10972 23.4417 8.83462 23.2197 8.50625C22.7767 7.85111 22.1182 6.97552 21.2556 6.09674C19.5466 4.35556 16.933 2.50039 13.5312 2.50002C12.8471 2.49856 12.1652 2.57304 11.4991 2.72195C11.03 2.82685 10.7387 3.27516 10.8485 3.72328C10.9583 4.17141 11.4277 4.44965 11.8968 4.34476ZM13.5312 2.50002H13.5302L13.5323 2.50002L13.5312 2.50002Z" fill="#F6F6F6" fill-opacity="0.4"/>
<path fill-rule="evenodd" clip-rule="evenodd" d="M5.43045 14.3077C5.94417 14.3077 6.44453 14.1513 6.85886 13.8612L11.2823 10.7643L12.2345 12.0051L7.81114 15.102C7.12059 15.5855 6.28666 15.8462 5.43045 15.8462H0.805368C0.360576 15.8462 0 15.5018 0 15.077C0 14.6521 0.360576 14.3077 0.805368 14.3077H5.43045Z" fill="#F6F6F6" fill-opacity="0.4"/>
<path d="M6.28188 16.923C6.28188 17.2629 5.99342 17.5384 5.63758 17.5384C5.28175 17.5384 4.99329 17.2629 4.99329 16.923C4.99329 16.5831 5.28175 16.3076 5.63758 16.3076C5.99342 16.3076 6.28188 16.5831 6.28188 16.923Z" fill="#F6F6F6" fill-opacity="0.4"/>
<path fill-rule="evenodd" clip-rule="evenodd" d="M0 16.923C0 16.6681 0.216346 16.4614 0.483221 16.4614H4.18792C4.4548 16.4614 4.67114 16.6681 4.67114 16.923C4.67114 17.1779 4.4548 17.3845 4.18792 17.3845H0.483221C0.216346 17.3845 0 17.1779 0 16.923Z" fill="#F6F6F6" fill-opacity="0.4"/>
</g>
<defs>
<clipPath id="clip0_218_1681">
<rect width="24" height="20" fill="white"/>
</clipPath>
</defs>
</svg>
