<svg width="19" height="19" viewBox="0 0 19 19" fill="none" xmlns="http://www.w3.org/2000/svg">
<path fill-rule="evenodd" clip-rule="evenodd" d="M1.35146 0.231874C1.04229 -0.0772913 0.541039 -0.0772913 0.231874 0.231874C-0.0772913 0.541039 -0.0772913 1.04229 0.231874 1.35146L3.61672 4.73631C2.18476 5.96891 0.989867 7.45633 0.0940856 9.1257C-0.0275413 9.35236 0.083579 9.85406 0.083579 9.85406L0.0842101 9.85532L0.0851355 9.85717L0.0878676 9.86257L0.0968513 9.88016C0.104402 9.89485 0.115075 9.9154 0.128847 9.94142C0.156386 9.99347 0.196352 10.0675 0.248561 10.1603C0.352919 10.3458 0.506548 10.6072 0.708016 10.9191C1.10997 11.5415 1.70749 12.3733 2.49016 13.2081C4.04105 14.8624 6.41289 16.625 9.5 16.625L9.51294 16.6249C11.1505 16.5981 12.7429 16.1133 14.1123 15.2319L17.6485 18.7681C17.9577 19.0773 18.459 19.0773 18.7681 18.7681C19.0773 18.459 19.0773 17.9577 18.7681 17.6485L14.7695 13.6499C14.7643 13.6445 14.759 13.6393 14.7537 13.6342L5.36445 4.24487C5.35928 4.23954 5.35404 4.23431 5.34875 4.22916L1.35146 0.231874ZM4.7398 5.85938C3.52317 6.8886 2.49324 8.12106 1.6962 9.50252C1.78256 9.65166 1.89677 9.84131 2.03808 10.0601C2.40305 10.6252 2.94355 11.3767 3.64526 12.1252C5.06188 13.6363 7.04197 15.0392 9.49354 15.0417C10.717 15.0206 11.9096 14.6873 12.9607 14.0803L11.1227 12.2423C10.997 12.3211 10.8657 12.3911 10.7296 12.4518C10.3411 12.6249 9.92181 12.7179 9.49662 12.7254C9.07143 12.7329 8.64909 12.6547 8.25478 12.4955C7.86048 12.3362 7.50229 12.0991 7.20159 11.7984C6.90088 11.4977 6.66383 11.1395 6.50456 10.7452C6.3453 10.3509 6.26708 9.92859 6.27458 9.5034C6.28208 9.07821 6.37515 8.65889 6.54823 8.27044C6.60888 8.13433 6.67892 8.00298 6.75771 7.87729L4.7398 5.85938ZM7.93875 9.05834C7.88795 9.21068 7.86051 9.37016 7.85767 9.53133C7.85392 9.74393 7.89303 9.9551 7.97266 10.1523C8.05229 10.3494 8.17082 10.5285 8.32117 10.6788C8.47152 10.8292 8.65062 10.9477 8.84777 11.0274C9.04492 11.107 9.25609 11.1461 9.46869 11.1424C9.62986 11.1395 9.78934 11.1121 9.94168 11.0613L7.93875 9.05834Z" fill="#F6F6F6" fill-opacity="0.4"/>
<path fill-rule="evenodd" clip-rule="evenodd" d="M8.01793 4.12752C8.50311 4.01395 8.99985 3.95718 9.49814 3.95835L9.5 3.95835C11.9546 3.95835 13.9369 5.36242 15.3547 6.87481C16.0565 7.6233 16.5969 8.37481 16.9619 8.93994C17.1035 9.15909 17.2178 9.349 17.3042 9.49826C16.8946 10.2111 16.4223 10.8863 15.8926 11.5157C15.6111 11.8503 15.6541 12.3497 15.9886 12.6312C16.3232 12.9127 16.8226 12.8697 17.1041 12.5351C17.7959 11.713 18.4 10.8208 18.9065 9.87322C19.0276 9.64676 19.0297 9.37255 18.9149 9.14287L18.9121 9.13747L18.9032 9.11988C18.8956 9.1052 18.8849 9.08464 18.8712 9.05862C18.8436 9.00657 18.8036 8.93258 18.7514 8.83976C18.6471 8.65423 18.4935 8.39289 18.292 8.08094C17.89 7.45856 17.2925 6.62674 16.5098 5.7919C14.9591 4.13778 12.5876 2.37537 9.50092 2.37502C8.88021 2.37363 8.26144 2.44439 7.65707 2.58586C7.23135 2.6855 6.96702 3.1114 7.06667 3.53712C7.16632 3.96284 7.59221 4.22717 8.01793 4.12752ZM9.50092 2.37502H9.5L9.50186 2.37502L9.50092 2.37502Z" fill="#F6F6F6" fill-opacity="0.4"/>
</svg>
