<svg width="31" height="20" viewBox="0 0 31 20" fill="none" xmlns="http://www.w3.org/2000/svg">
<path fill-rule="evenodd" clip-rule="evenodd" d="M5.77763 10.3724C5.8879 10.563 6.03409 10.8058 6.2152 11.0862C6.68036 11.8065 7.36923 12.7643 8.26357 13.7182C10.0706 15.6458 12.5971 17.4353 15.7255 17.4353C18.8538 17.4353 21.3803 15.6458 23.1874 13.7182C24.0818 12.7643 24.7706 11.8065 25.2358 11.0862C25.4169 10.8058 25.5631 10.563 25.6734 10.3724C25.5631 10.1818 25.4169 9.93898 25.2358 9.65856C24.7706 8.9383 24.0818 7.98049 23.1874 7.02653C21.3803 5.09898 18.8538 3.30948 15.7255 3.30948C12.5971 3.30948 10.0706 5.09898 8.26357 7.02653C7.36923 7.98049 6.68036 8.9383 6.2152 9.65856C6.03409 9.93898 5.8879 10.1818 5.77763 10.3724ZM27.7248 9.9172L27.7214 9.91031L27.7099 9.8879C27.7003 9.86918 27.6867 9.84299 27.6691 9.80982C27.634 9.74349 27.5831 9.64917 27.5165 9.53088C27.3835 9.29443 27.1877 8.96134 26.931 8.56375C26.4187 7.77053 25.6571 6.71037 24.6596 5.64635C22.683 3.53795 19.66 1.2915 15.7255 1.2915C11.7909 1.2915 8.768 3.53795 6.79138 5.64635C5.79387 6.71037 5.03231 7.77053 4.52002 8.56375C4.26325 8.96134 4.06745 9.29443 3.93444 9.53088C3.8679 9.64917 3.81696 9.74349 3.78186 9.80982C3.76431 9.84299 3.75071 9.86918 3.74109 9.8879L3.72964 9.91031L3.72615 9.9172L3.72497 9.91955C3.72497 9.91955 3.72964 10.8345 3.72416 10.8236L3.72417 9.92115C3.58214 10.2052 3.58213 10.5396 3.72416 10.8236L3.72964 10.8345L3.74109 10.8569C3.75071 10.8756 3.76431 10.9018 3.78186 10.935C3.81696 11.0013 3.8679 11.0956 3.93444 11.2139C4.06745 11.4503 4.26325 11.7834 4.52002 12.181C5.03231 12.9742 5.79387 14.0344 6.79138 15.0984C8.768 17.2068 11.7909 19.4533 15.7255 19.4533C19.66 19.4533 22.683 17.2068 24.6596 15.0984C25.6571 14.0344 26.4187 12.9742 26.931 12.181C27.1877 11.7834 27.3835 11.4503 27.5165 11.2139C27.5831 11.0956 27.634 11.0013 27.6691 10.935C27.6867 10.9018 27.7003 10.8756 27.7099 10.8569L27.7214 10.8345L27.7248 10.8276L27.726 10.8252C27.7869 10.7037 27.7859 10.0388 27.7248 9.9172Z" fill="#F6F6F6" fill-opacity="0.4"/>
<path fill-rule="evenodd" clip-rule="evenodd" d="M15.7255 8.35441C14.611 8.35441 13.7075 9.25789 13.7075 10.3724C13.7075 11.4869 14.611 12.3904 15.7255 12.3904C16.84 12.3904 17.7435 11.4869 17.7435 10.3724C17.7435 9.25789 16.84 8.35441 15.7255 8.35441ZM11.6895 10.3724C11.6895 8.14339 13.4965 6.33644 15.7255 6.33644C17.9545 6.33644 19.7614 8.14339 19.7614 10.3724C19.7614 12.6014 17.9545 14.4083 15.7255 14.4083C13.4965 14.4083 11.6895 12.6014 11.6895 10.3724Z" fill="#F6F6F6" fill-opacity="0.4"/>
<path fill-rule="evenodd" clip-rule="evenodd" d="M24.7199 5.15669C24.1258 5.15669 23.5472 5.34606 23.068 5.69729L17.9526 9.44708L16.8513 7.94474L21.9668 4.19495C22.7654 3.60956 23.7298 3.29395 24.7199 3.29395H30.0686C30.583 3.29395 31 3.71093 31 4.22532C31 4.7397 30.583 5.15669 30.0686 5.15669H24.7199Z" fill="#F6F6F6" fill-opacity="0.4"/>
<path fill-rule="evenodd" clip-rule="evenodd" d="M6.3585 15.5884C6.9526 15.5884 7.53124 15.3991 8.0104 15.0478L13.1258 11.298L14.2271 12.8004L9.11167 16.5502C8.31307 17.1356 7.34867 17.4512 6.3585 17.4512H1.00981C0.495429 17.4512 0.0784388 17.0342 0.0784388 16.5198C0.0784388 16.0054 0.495429 15.5884 1.00981 15.5884H6.3585Z" fill="#F6F6F6" fill-opacity="0.4"/>
<path d="M25.2255 1.2451C25.2255 1.6566 24.8919 1.9902 24.4804 1.9902C24.0689 1.9902 23.7353 1.6566 23.7353 1.2451C23.7353 0.833592 24.0689 0.5 24.4804 0.5C24.8919 0.5 25.2255 0.833592 25.2255 1.2451Z" fill="#F6F6F6" fill-opacity="0.4"/>
<path d="M27.8333 1.2451C27.8333 1.6566 27.4997 1.9902 27.0882 1.9902C26.6767 1.9902 26.3431 1.6566 26.3431 1.2451C26.3431 0.833592 26.6767 0.5 27.0882 0.5C27.4997 0.5 27.8333 0.833592 27.8333 1.2451Z" fill="#F6F6F6" fill-opacity="0.4"/>
<path d="M30.4412 1.2451C30.4412 1.6566 30.1076 1.9902 29.6961 1.9902C29.2846 1.9902 28.951 1.6566 28.951 1.2451C28.951 0.833592 29.2846 0.5 29.6961 0.5C30.1076 0.5 30.4412 0.833592 30.4412 1.2451Z" fill="#F6F6F6" fill-opacity="0.4"/>
<path d="M7.34313 18.7549C7.34313 19.1664 7.00954 19.5 6.59803 19.5C6.18653 19.5 5.85294 19.1664 5.85294 18.7549C5.85294 18.3434 6.18653 18.0098 6.59803 18.0098C7.00954 18.0098 7.34313 18.3434 7.34313 18.7549Z" fill="#F6F6F6" fill-opacity="0.4"/>
<path fill-rule="evenodd" clip-rule="evenodd" d="M0.0784302 18.7551C0.0784302 18.4465 0.328624 18.1963 0.637254 18.1963H4.92157C5.2302 18.1963 5.48039 18.4465 5.48039 18.7551C5.48039 19.0637 5.2302 19.3139 4.92157 19.3139H0.637254C0.328624 19.3139 0.0784302 19.0637 0.0784302 18.7551Z" fill="#F6F6F6" fill-opacity="0.4"/>
</svg>
