<svg width="19" height="20" viewBox="0 0 19 20" fill="none" xmlns="http://www.w3.org/2000/svg">
<path fill-rule="evenodd" clip-rule="evenodd" d="M1.69476 10C1.78128 10.1495 1.89598 10.3401 2.03808 10.5601C2.40305 11.1252 2.94355 11.8767 3.64526 12.6252C5.06312 14.1376 7.04545 15.5417 9.5 15.5417C11.9546 15.5417 13.9369 14.1376 15.3547 12.6252C16.0565 11.8767 16.597 11.1252 16.9619 10.5601C17.104 10.3401 17.2187 10.1495 17.3053 10C17.2187 9.85048 17.104 9.65994 16.9619 9.43992C16.597 8.87479 16.0565 8.12328 15.3547 7.37479C13.9369 5.8624 11.9546 4.45833 9.5 4.45833C7.04545 4.45833 5.06312 5.8624 3.64526 7.37479C2.94355 8.12328 2.40305 8.87479 2.03808 9.43992C1.89598 9.65994 1.78128 9.85048 1.69476 10ZM18.9149 9.64285L18.9121 9.63745L18.9032 9.61986C18.8956 9.60518 18.8849 9.58462 18.8712 9.5586C18.8436 9.50655 18.8037 9.43256 18.7514 9.33974C18.6471 9.15422 18.4935 8.89287 18.292 8.58092C17.89 7.95854 17.2925 7.12672 16.5098 6.29188C14.959 4.6376 12.5871 2.875 9.5 2.875C6.41289 2.875 4.04105 4.6376 2.49016 6.29188C1.7075 7.12672 1.10997 7.95854 0.708018 8.58092C0.506551 8.89287 0.352921 9.15422 0.248563 9.33974C0.196354 9.43256 0.156388 9.50655 0.128849 9.5586C0.115077 9.58462 0.104404 9.60518 0.0968533 9.61986L0.0878695 9.63745L0.0851374 9.64285L0.0842121 9.6447C0.0842121 9.6447 0.0878719 10.3626 0.0835761 10.354L0.0835809 9.64596C-0.0278571 9.86883 -0.0278619 10.1312 0.0835761 10.354L0.0878695 10.3626L0.0968533 10.3801C0.104404 10.3948 0.115077 10.4154 0.128849 10.4414C0.156388 10.4934 0.196354 10.5674 0.248563 10.6603C0.352921 10.8458 0.506551 11.1071 0.708018 11.4191C1.10997 12.0415 1.7075 12.8733 2.49016 13.7081C4.04105 15.3624 6.41289 17.125 9.5 17.125C12.5871 17.125 14.959 15.3624 16.5098 13.7081C17.2925 12.8733 17.89 12.0415 18.292 11.4191C18.4935 11.1071 18.6471 10.8458 18.7514 10.6603C18.8037 10.5674 18.8436 10.4934 18.8712 10.4414C18.8849 10.4154 18.8956 10.3948 18.9032 10.3801L18.9121 10.3626L18.9149 10.3571L18.9158 10.3553C18.9635 10.26 18.9628 9.73826 18.9149 9.64285Z" fill="#F6F6F6" fill-opacity="0.4"/>
<path fill-rule="evenodd" clip-rule="evenodd" d="M9.5 8.41667C8.62555 8.41667 7.91667 9.12555 7.91667 10C7.91667 10.8745 8.62555 11.5833 9.5 11.5833C10.3745 11.5833 11.0833 10.8745 11.0833 10C11.0833 9.12555 10.3745 8.41667 9.5 8.41667ZM6.33333 10C6.33333 8.2511 7.7511 6.83333 9.5 6.83333C11.2489 6.83333 12.6667 8.2511 12.6667 10C12.6667 11.7489 11.2489 13.1667 9.5 13.1667C7.7511 13.1667 6.33333 11.7489 6.33333 10Z" fill="#F6F6F6" fill-opacity="0.4"/>
</svg>
