<svg width="73" height="62" viewBox="0 0 73 62" fill="none" xmlns="http://www.w3.org/2000/svg">
<path d="M19.2685 18.7291V22.6257C19.2685 25 18.7202 26.8296 17.6236 28.1145C16.5532 29.3715 14.9605 30 12.8457 30C10.7308 30 9.12513 29.3715 8.02855 28.1145C6.95808 26.8296 6.42284 25 6.42284 22.6257V7.3743C6.42284 5 6.95808 3.18436 8.02855 1.92737C9.12513 0.642457 10.7308 0 12.8457 0C14.9605 0 16.5532 0.642457 17.6236 1.92737C18.7202 3.18436 19.2685 5 19.2685 7.3743V10.2235H15.1955V7.081C15.1955 6.01955 14.9866 5.27933 14.5689 4.86034C14.1772 4.41341 13.642 4.18994 12.9632 4.18994C12.2843 4.18994 11.736 4.41341 11.3183 4.86034C10.9267 5.27933 10.7308 6.01955 10.7308 7.081V22.919C10.7308 23.9804 10.9267 24.7207 11.3183 25.1397C11.736 25.5587 12.2843 25.7682 12.9632 25.7682C13.642 25.7682 14.1772 25.5587 14.5689 25.1397C14.9866 24.7207 15.1955 23.9804 15.1955 22.919V18.7291H19.2685Z" fill="url(#paint0_linear_15_67)"/>
<path d="M30.89 29.6648C30.8378 29.4693 30.7856 29.2877 30.7334 29.1201C30.6812 28.9525 30.6289 28.743 30.5767 28.4916C30.5506 28.2402 30.5245 27.919 30.4984 27.5279C30.4984 27.1369 30.4984 26.648 30.4984 26.0615V21.4525C30.4984 20.0838 30.2765 19.1201 29.8326 18.5615C29.3888 18.0028 28.6708 17.7235 27.6786 17.7235H26.1904V29.6648H21.8824V0.335194H28.3836C30.6289 0.335194 32.2477 0.893853 33.2399 2.01117C34.2581 3.12849 34.7672 4.81844 34.7672 7.081V9.38547C34.7672 12.4022 33.8273 14.3855 31.9475 15.3352C33.044 15.8101 33.7881 16.5922 34.1798 17.6816C34.5975 18.743 34.8064 20.0419 34.8064 21.5782V26.1034C34.8064 26.8296 34.8325 27.4721 34.8847 28.0307C34.9369 28.5615 35.0675 29.1061 35.2764 29.6648H30.89ZM26.1904 4.52514V13.5335H27.8744C28.6838 13.5335 29.3104 13.3101 29.7543 12.8631C30.2243 12.4162 30.4592 11.6061 30.4592 10.433V7.5419C30.4592 6.48045 30.2765 5.71229 29.9109 5.23743C29.5715 4.76257 29.0232 4.52514 28.2661 4.52514H26.1904Z" fill="url(#paint1_linear_15_67)"/>
<path d="M41.9477 12.6955H47.8614V16.8855H41.9477V25.4749H49.3887V29.6648H37.6396V0.335194H49.3887V4.52514H41.9477V12.6955Z" fill="url(#paint2_linear_15_67)"/>
<path d="M66.0005 29.6648H61.6534L60.9093 24.3436H55.6222L54.8781 29.6648H50.9226L55.3089 0.335194H61.6142L66.0005 29.6648ZM56.1705 20.3631H60.3218L58.2462 5.53073L56.1705 20.3631Z" fill="url(#paint3_linear_15_67)"/>
<path d="M12.8457 50.229V54.1257C12.8457 56.5 12.2974 58.3296 11.2008 59.6145C10.1303 60.8715 8.53768 61.5 6.42284 61.5C4.308 61.5 2.7023 60.8715 1.60571 59.6145C0.535239 58.3296 0 56.5 0 54.1257V38.8743C0 36.5 0.535239 34.6844 1.60571 33.4274C2.7023 32.1425 4.308 31.5 6.42284 31.5C8.53768 31.5 10.1303 32.1425 11.2008 33.4274C12.2974 34.6844 12.8457 36.5 12.8457 38.8743V41.7235H8.77266V38.581C8.77266 37.5196 8.56378 36.7793 8.14604 36.3603C7.7544 35.9134 7.21916 35.6899 6.54033 35.6899C5.86149 35.6899 5.3132 35.9134 4.89546 36.3603C4.50382 36.7793 4.308 37.5196 4.308 38.581V54.419C4.308 55.4805 4.50382 56.2207 4.89546 56.6397C5.3132 57.0587 5.86149 57.2682 6.54033 57.2682C7.21916 57.2682 7.7544 57.0587 8.14604 56.6397C8.56378 56.2207 8.77266 55.4805 8.77266 54.419V50.229H12.8457Z" fill="white"/>
<path d="M24.4672 61.1648C24.415 60.9693 24.3628 60.7877 24.3105 60.6201C24.2583 60.4525 24.2061 60.243 24.1539 59.9916C24.1278 59.7402 24.1017 59.419 24.0756 59.0279C24.0756 58.6369 24.0756 58.148 24.0756 57.5615V52.9525C24.0756 51.5838 23.8536 50.6201 23.4098 50.0615C22.9659 49.5028 22.2479 49.2235 21.2558 49.2235H19.7676V61.1648H15.4596V31.8352H21.9607C24.2061 31.8352 25.8249 32.3939 26.817 33.5112C27.8353 34.6285 28.3444 36.3184 28.3444 38.581V40.8855C28.3444 43.9022 27.4045 45.8855 25.5246 46.8352C26.6212 47.3101 27.3653 48.0922 27.7569 49.1816C28.1747 50.243 28.3836 51.5419 28.3836 53.0782V57.6034C28.3836 58.3296 28.4097 58.9721 28.4619 59.5307C28.5141 60.0615 28.6447 60.6061 28.8535 61.1648H24.4672ZM19.7676 36.0251V45.0335H21.4516C22.261 45.0335 22.8876 44.8101 23.3314 44.3631C23.8014 43.9162 24.0364 43.1061 24.0364 41.933V39.0419C24.0364 37.9804 23.8536 37.2123 23.4881 36.7374C23.1487 36.2626 22.6004 36.0251 21.8432 36.0251H19.7676Z" fill="white"/>
<path d="M45.1591 61.1648H40.8119L40.0678 55.8436H34.7807L34.0366 61.1648H30.0811L34.4674 31.8352H40.7727L45.1591 61.1648ZM35.329 51.8631H39.4803L37.4047 37.0307L35.329 51.8631Z" fill="white"/>
<path d="M51.4733 44.8659H57.0345V49.0559H51.4733V61.1648H47.1653V31.8352H58.5619V36.0251H51.4733V44.8659Z" fill="white"/>
<path d="M59.4529 31.8352H72.7685V36.0251H68.2647V61.1648H63.9567V36.0251H59.4529V31.8352Z" fill="white"/>
<defs>
<linearGradient id="paint0_linear_15_67" x1="138.995" y1="30" x2="4.37014" y2="30" gradientUnits="userSpaceOnUse">
<stop offset="0.541467" stop-color="white"/>
<stop offset="0.541567" stop-color="white"/>
<stop offset="0.541667" stop-color="#EE881F"/>
<stop offset="1" stop-color="#EE881F"/>
</linearGradient>
<linearGradient id="paint1_linear_15_67" x1="138.995" y1="30" x2="4.37014" y2="30" gradientUnits="userSpaceOnUse">
<stop offset="0.541467" stop-color="white"/>
<stop offset="0.541567" stop-color="white"/>
<stop offset="0.541667" stop-color="#EE881F"/>
<stop offset="1" stop-color="#EE881F"/>
</linearGradient>
<linearGradient id="paint2_linear_15_67" x1="138.995" y1="30" x2="4.37014" y2="30" gradientUnits="userSpaceOnUse">
<stop offset="0.541467" stop-color="white"/>
<stop offset="0.541567" stop-color="white"/>
<stop offset="0.541667" stop-color="#EE881F"/>
<stop offset="1" stop-color="#EE881F"/>
</linearGradient>
<linearGradient id="paint3_linear_15_67" x1="138.995" y1="30" x2="4.37014" y2="30" gradientUnits="userSpaceOnUse">
<stop offset="0.541467" stop-color="white"/>
<stop offset="0.541567" stop-color="white"/>
<stop offset="0.541667" stop-color="#EE881F"/>
<stop offset="1" stop-color="#EE881F"/>
</linearGradient>
</defs>
</svg>
